<?xml version="1.0" standalone="no"?>
<!DOCTYPE svg PUBLIC "-//W3C//DTD SVG 20010904//EN"
 "http://www.w3.org/TR/2001/REC-SVG-20010904/DTD/svg10.dtd">
<svg version="1.0" xmlns="http://www.w3.org/2000/svg"
 width="116.000000pt" height="116.000000pt" viewBox="0 0 116.000000 116.000000"
 preserveAspectRatio="xMidYMid meet">
<metadata>
Created by potrace 1.11, written by Peter Selinger 2001-2013
</metadata>
<g transform="translate(0.000000,116.000000) scale(0.100000,-0.100000)"
fill="#000000" stroke="none">
<path d="M546 1148 c3 -4 -7 -13 -21 -18 -15 -6 -33 -17 -42 -25 -8 -8 -18
-13 -23 -10 -4 3 -11 -2 -14 -11 -4 -9 -9 -14 -13 -11 -3 4 -22 -6 -42 -22
-20 -16 -46 -31 -58 -35 -13 -4 -23 -12 -23 -18 0 -6 -3 -9 -6 -6 -5 6 -60
-26 -90 -51 -7 -6 -15 -7 -18 -4 -3 4 -6 1 -6 -5 0 -7 -7 -12 -15 -12 -8 0
-15 -5 -15 -11 0 -5 -4 -8 -8 -5 -5 3 -16 -4 -26 -15 -9 -12 -24 -18 -32 -15
-12 5 -13 -35 -11 -277 2 -156 7 -289 12 -296 6 -10 4 -12 -6 -6 -8 5 -6 -1 5
-13 10 -12 23 -19 27 -16 5 3 9 0 9 -7 0 -7 3 -10 6 -6 4 3 13 0 21 -8 8 -8
24 -15 35 -15 12 0 18 -3 15 -7 -4 -3 5 -12 19 -19 54 -29 109 -59 114 -64 3
-3 19 -12 35 -20 17 -8 32 -17 35 -20 5 -5 63 -37 125 -68 17 -9 33 -20 37
-26 4 -6 14 -6 30 2 44 24 83 47 88 53 3 3 42 28 88 54 45 26 82 51 82 56 0 5
7 6 15 3 8 -4 15 -2 15 3 0 4 20 19 45 33 25 14 45 28 45 33 0 4 5 5 10 2 6
-3 10 -1 10 5 0 6 4 9 8 6 5 -3 18 4 30 14 12 11 26 20 32 20 13 0 9 478 -5
499 -5 10 -4 12 3 7 7 -4 12 -1 12 9 0 10 -5 13 -12 9 -8 -5 -7 0 2 11 16 19
16 21 -3 44 -10 12 -9 13 2 6 9 -5 12 -4 8 2 -4 6 -19 14 -34 18 -15 3 -30 10
-33 14 -3 4 -25 19 -50 32 -25 14 -62 35 -82 47 -21 12 -38 18 -38 14 0 -4 -4
-2 -8 4 -8 13 -73 52 -149 89 -29 15 -53 31 -53 36 0 6 -4 8 -9 4 -5 -3 -16 1
-24 9 -15 15 -60 18 -51 4z"/>
</g>
</svg>
